<?xml version="1.0" encoding="utf-8" standalone="no"?>
<!DOCTYPE svg PUBLIC "-//W3C//DTD SVG 1.1//EN"
  "http://www.w3.org/Graphics/SVG/1.1/DTD/svg11.dtd">
<svg xmlns:xlink="http://www.w3.org/1999/xlink" width="152.7737pt" height="123.164983pt" viewBox="0 0 152.7737 123.164983" xmlns="http://www.w3.org/2000/svg" version="1.1">
 <metadata>
  <rdf:RDF xmlns:dc="http://purl.org/dc/elements/1.1/" xmlns:cc="http://creativecommons.org/ns#" xmlns:rdf="http://www.w3.org/1999/02/22-rdf-syntax-ns#">
   <cc:Work>
    <dc:type rdf:resource="http://purl.org/dc/dcmitype/StillImage"/>
    <dc:date>2025-12-16T12:07:01.443487</dc:date>
    <dc:format>image/svg+xml</dc:format>
    <dc:creator>
     <cc:Agent>
      <dc:title>Matplotlib v3.10.7, https://matplotlib.org/</dc:title>
     </cc:Agent>
    </dc:creator>
   </cc:Work>
  </rdf:RDF>
 </metadata>
 <defs>
  <style type="text/css">*{stroke-linejoin: round; stroke-linecap: butt}</style>
 </defs>
 <g id="figure_1">
  <g id="patch_1">
   <path d="M 0 123.164983 
L 152.7737 123.164983 
L 152.7737 0 
L 0 0 
L 0 123.164983 
z
" style="fill: none; opacity: 0"/>
  </g>
  <g id="axes_1">
   <g id="patch_2">
    <path d="M 32.187873 98.393829 
L 145.5737 98.393829 
L 145.5737 19.02375 
L 32.187873 19.02375 
L 32.187873 98.393829 
z
" style="fill: none; opacity: 0"/>
   </g>
   <g id="FillBetweenPolyCollection_1">
    <path d="M 37.341774 51.369273 
L 37.341774 65.874759 
L 38.382966 65.260354 
L 39.424158 62.214911 
L 40.46535 59.499492 
L 41.506543 60.202419 
L 42.547735 58.848702 
L 43.588927 56.866898 
L 44.630119 55.488742 
L 45.671311 51.75037 
L 46.712503 50.699901 
L 47.753696 50.923392 
L 48.794888 49.517663 
L 49.83608 45.701845 
L 50.877272 49.740935 
L 51.918464 44.064217 
L 52.959656 43.079742 
L 54.000849 43.543253 
L 55.042041 45.258489 
L 56.083233 40.438737 
L 57.124425 42.587361 
L 58.165617 39.934193 
L 59.206809 39.756 
L 60.248002 39.724624 
L 61.289194 39.610737 
L 62.330386 40.796192 
L 63.371578 40.756393 
L 64.41277 41.41096 
L 65.453962 35.817032 
L 66.495155 39.418613 
L 67.536347 40.203694 
L 68.577539 41.982774 
L 69.618731 45.525588 
L 70.659923 42.090068 
L 71.701115 43.752879 
L 72.742308 43.363298 
L 73.7835 45.252861 
L 74.824692 45.327538 
L 75.865884 47.646743 
L 76.907076 49.625311 
L 77.948268 51.472948 
L 78.989461 49.40556 
L 80.030653 50.940998 
L 81.071845 54.102155 
L 82.113037 54.71764 
L 83.154229 59.121142 
L 84.195421 59.217994 
L 85.236614 62.616415 
L 86.277806 64.903833 
L 87.318998 61.177528 
L 88.36019 66.23075 
L 89.401382 68.743061 
L 90.442574 67.027843 
L 91.483767 70.196966 
L 92.524959 71.174056 
L 93.566151 73.877604 
L 94.607343 75.670512 
L 95.648535 77.043214 
L 96.689727 76.726915 
L 97.73092 78.586951 
L 98.772112 77.511382 
L 99.813304 81.770258 
L 100.854496 83.482062 
L 101.895688 86.809988 
L 102.93688 87.050545 
L 103.978073 83.969722 
L 105.019265 88.708523 
L 106.060457 89.053612 
L 107.101649 88.584918 
L 108.142841 90.548983 
L 109.184033 86.621864 
L 110.225226 90.066536 
L 111.266418 93.695884 
L 112.30761 92.787067 
L 113.348802 92.452725 
L 114.389994 94.786098 
L 115.431186 93.080163 
L 116.472379 93.161019 
L 117.513571 91.45875 
L 118.554763 91.918372 
L 119.595955 91.071811 
L 120.637147 89.032844 
L 121.678339 90.23978 
L 122.719532 92.138681 
L 123.760724 88.358991 
L 124.801916 88.384727 
L 125.843108 86.356667 
L 126.8843 85.462481 
L 127.925492 83.21276 
L 128.966685 82.280316 
L 130.007877 80.907355 
L 131.049069 80.51307 
L 132.090261 79.52794 
L 133.131453 75.750741 
L 134.172645 76.38249 
L 135.213838 74.574297 
L 136.25503 74.033324 
L 137.296222 70.818129 
L 138.337414 70.811197 
L 139.378606 66.91707 
L 140.419798 63.668533 
L 140.419798 52.351546 
L 140.419798 52.351546 
L 139.378606 51.595005 
L 138.337414 52.797113 
L 137.296222 55.723705 
L 136.25503 55.878525 
L 135.213838 58.391753 
L 134.172645 62.132575 
L 133.131453 61.065279 
L 132.090261 62.585098 
L 131.049069 65.938157 
L 130.007877 65.045527 
L 128.966685 68.107349 
L 127.925492 70.384828 
L 126.8843 70.113704 
L 125.843108 70.990437 
L 124.801916 72.969063 
L 123.760724 72.944129 
L 122.719532 72.424731 
L 121.678339 75.179178 
L 120.637147 73.735543 
L 119.595955 74.689206 
L 118.554763 75.288747 
L 117.513571 75.004585 
L 116.472379 77.440159 
L 115.431186 77.247493 
L 114.389994 76.673033 
L 113.348802 77.794124 
L 112.30761 79.253185 
L 111.266418 75.944727 
L 110.225226 75.514487 
L 109.184033 74.691371 
L 108.142841 76.487758 
L 107.101649 73.077282 
L 106.060457 74.133512 
L 105.019265 72.523243 
L 103.978073 71.743377 
L 102.93688 72.049783 
L 101.895688 69.807692 
L 100.854496 67.073959 
L 99.813304 67.773268 
L 98.772112 66.156994 
L 97.73092 63.954239 
L 96.689727 61.512984 
L 95.648535 62.356024 
L 94.607343 58.106795 
L 93.566151 57.549647 
L 92.524959 56.108552 
L 91.483767 54.675099 
L 90.442574 50.645578 
L 89.401382 53.029791 
L 88.36019 50.721205 
L 87.318998 48.977351 
L 86.277806 47.712034 
L 85.236614 47.797321 
L 84.195421 44.380147 
L 83.154229 41.347611 
L 82.113037 41.308663 
L 81.071845 39.721576 
L 80.030653 35.171485 
L 78.989461 36.709546 
L 77.948268 35.662492 
L 76.907076 33.060405 
L 75.865884 34.360607 
L 74.824692 30.698656 
L 73.7835 29.064834 
L 72.742308 27.042257 
L 71.701115 27.556582 
L 70.659923 27.875546 
L 69.618731 27.321628 
L 68.577539 26.959229 
L 67.536347 25.755811 
L 66.495155 24.166178 
L 65.453962 23.628768 
L 64.41277 24.842661 
L 63.371578 23.312446 
L 62.330386 23.969804 
L 61.289194 23.056838 
L 60.248002 25.086756 
L 59.206809 23.64656 
L 58.165617 22.631481 
L 57.124425 25.75803 
L 56.083233 27.448635 
L 55.042041 29.515299 
L 54.000849 27.029781 
L 52.959656 28.837485 
L 51.918464 30.474854 
L 50.877272 32.246091 
L 49.83608 29.864861 
L 48.794888 34.273058 
L 47.753696 37.338925 
L 46.712503 33.649631 
L 45.671311 38.171063 
L 44.630119 38.873338 
L 43.588927 40.836535 
L 42.547735 42.815342 
L 41.506543 46.127428 
L 40.46535 45.923786 
L 39.424158 46.998684 
L 38.382966 49.444695 
L 37.341774 51.369273 
z
" clip-path="url(#pf79a873b5c)" style="fill: #0080bf; fill-opacity: 0.3"/>
   </g>
   <g id="line2d_1">
    <path d="M 37.341774 58.622016 
L 38.382966 57.352524 
L 39.424158 54.606798 
L 40.46535 52.711639 
L 41.506543 53.164923 
L 42.547735 50.832022 
L 43.588927 48.851717 
L 44.630119 47.18104 
L 45.671311 44.960717 
L 46.712503 42.174766 
L 47.753696 44.131159 
L 48.794888 41.89536 
L 49.83608 37.783353 
L 50.877272 40.993513 
L 51.918464 37.269535 
L 52.959656 35.958614 
L 54.000849 35.286517 
L 55.042041 37.386894 
L 56.083233 33.943686 
L 57.124425 34.172696 
L 58.165617 31.282837 
L 59.206809 31.70128 
L 60.248002 32.40569 
L 61.289194 31.333787 
L 62.330386 32.382998 
L 63.371578 32.03442 
L 64.41277 33.12681 
L 65.453962 29.7229 
L 66.495155 31.792396 
L 67.536347 32.979753 
L 68.577539 34.471001 
L 69.618731 36.423608 
L 70.659923 34.982807 
L 71.701115 35.654731 
L 72.742308 35.202777 
L 73.7835 37.158847 
L 74.824692 38.013097 
L 75.865884 41.003675 
L 76.907076 41.342858 
L 77.948268 43.56772 
L 78.989461 43.057553 
L 80.030653 43.056241 
L 81.071845 46.911866 
L 82.113037 48.013151 
L 83.154229 50.234377 
L 84.195421 51.79907 
L 85.236614 55.206868 
L 86.277806 56.307934 
L 87.318998 55.077439 
L 88.36019 58.475978 
L 89.401382 60.886426 
L 90.442574 58.83671 
L 91.483767 62.436032 
L 92.524959 63.641304 
L 93.566151 65.713625 
L 94.607343 66.888654 
L 95.648535 69.699619 
L 96.689727 69.11995 
L 97.73092 71.270595 
L 98.772112 71.834188 
L 99.813304 74.771763 
L 100.854496 75.278011 
L 101.895688 78.30884 
L 102.93688 79.550164 
L 103.978073 77.85655 
L 105.019265 80.615883 
L 106.060457 81.593562 
L 107.101649 80.8311 
L 108.142841 83.51837 
L 109.184033 80.656618 
L 110.225226 82.790511 
L 111.266418 84.820306 
L 112.30761 86.020126 
L 113.348802 85.123425 
L 114.389994 85.729566 
L 115.431186 85.163828 
L 116.472379 85.300589 
L 117.513571 83.231667 
L 118.554763 83.60356 
L 119.595955 82.880508 
L 120.637147 81.384193 
L 121.678339 82.709479 
L 122.719532 82.281706 
L 123.760724 80.65156 
L 124.801916 80.676895 
L 125.843108 78.673552 
L 126.8843 77.788092 
L 127.925492 76.798794 
L 128.966685 75.193833 
L 130.007877 72.976441 
L 131.049069 73.225614 
L 132.090261 71.056519 
L 133.131453 68.40801 
L 134.172645 69.257533 
L 135.213838 66.483025 
L 136.25503 64.955924 
L 137.296222 63.270917 
L 138.337414 61.804155 
L 139.378606 59.256037 
L 140.419798 58.010039 
" clip-path="url(#pf79a873b5c)" style="fill: none; stroke: #0080bf; stroke-opacity: 0.3; stroke-width: 0.56693; stroke-linecap: square"/>
   </g>
   <g id="matplotlib.axis_1">
    <g id="xtick_1">
     <g id="line2d_2">
      <defs>
       <path id="m72f28acf87" d="M 0 0 
L 0 2.267717 
" style="stroke: #000000; stroke-width: 0.566929"/>
      </defs>
      <g>
       <use xlink:href="#m72f28acf87" x="37.341774" y="98.393829" style="stroke: #000000; stroke-width: 0.566929"/>
      </g>
     </g>
     <g id="text_1">
      <!-- 0 -->
      <g transform="translate(35.395446 107.672014) scale(0.07 -0.07)">
       <defs>
        <path id="ArialMT-30" d="M 266 2259 
Q 266 3072 433 3567 
Q 600 4063 929 4331 
Q 1259 4600 1759 4600 
Q 2128 4600 2406 4451 
Q 2684 4303 2865 4023 
Q 3047 3744 3150 3342 
Q 3253 2941 3253 2259 
Q 3253 1453 3087 958 
Q 2922 463 2592 192 
Q 2263 -78 1759 -78 
Q 1097 -78 719 397 
Q 266 969 266 2259 
z
M 844 2259 
Q 844 1131 1108 757 
Q 1372 384 1759 384 
Q 2147 384 2411 759 
Q 2675 1134 2675 2259 
Q 2675 3391 2411 3762 
Q 2147 4134 1753 4134 
Q 1366 4134 1134 3806 
Q 844 3388 844 2259 
z
" transform="scale(0.015625)"/>
       </defs>
       <use xlink:href="#ArialMT-30"/>
      </g>
     </g>
    </g>
    <g id="xtick_2">
     <g id="line2d_3">
      <g>
       <use xlink:href="#m72f28acf87" x="78.989461" y="98.393829" style="stroke: #000000; stroke-width: 0.566929"/>
      </g>
     </g>
     <g id="text_2">
      <!-- 40 -->
      <g transform="translate(75.096804 107.672014) scale(0.07 -0.07)">
       <defs>
        <path id="ArialMT-34" d="M 2069 0 
L 2069 1097 
L 81 1097 
L 81 1613 
L 2172 4581 
L 2631 4581 
L 2631 1613 
L 3250 1613 
L 3250 1097 
L 2631 1097 
L 2631 0 
L 2069 0 
z
M 2069 1613 
L 2069 3678 
L 634 1613 
L 2069 1613 
z
" transform="scale(0.015625)"/>
       </defs>
       <use xlink:href="#ArialMT-34"/>
       <use xlink:href="#ArialMT-30" transform="translate(55.615234 0)"/>
      </g>
     </g>
    </g>
    <g id="xtick_3">
     <g id="line2d_4">
      <g>
       <use xlink:href="#m72f28acf87" x="120.637147" y="98.393829" style="stroke: #000000; stroke-width: 0.566929"/>
      </g>
     </g>
     <g id="text_3">
      <!-- 80 -->
      <g transform="translate(116.744491 107.672014) scale(0.07 -0.07)">
       <defs>
        <path id="ArialMT-38" d="M 1131 2484 
Q 781 2613 612 2850 
Q 444 3088 444 3419 
Q 444 3919 803 4259 
Q 1163 4600 1759 4600 
Q 2359 4600 2725 4251 
Q 3091 3903 3091 3403 
Q 3091 3084 2923 2848 
Q 2756 2613 2416 2484 
Q 2838 2347 3058 2040 
Q 3278 1734 3278 1309 
Q 3278 722 2862 322 
Q 2447 -78 1769 -78 
Q 1091 -78 675 323 
Q 259 725 259 1325 
Q 259 1772 486 2073 
Q 713 2375 1131 2484 
z
M 1019 3438 
Q 1019 3113 1228 2906 
Q 1438 2700 1772 2700 
Q 2097 2700 2305 2904 
Q 2513 3109 2513 3406 
Q 2513 3716 2298 3927 
Q 2084 4138 1766 4138 
Q 1444 4138 1231 3931 
Q 1019 3725 1019 3438 
z
M 838 1322 
Q 838 1081 952 856 
Q 1066 631 1291 507 
Q 1516 384 1775 384 
Q 2178 384 2440 643 
Q 2703 903 2703 1303 
Q 2703 1709 2433 1975 
Q 2163 2241 1756 2241 
Q 1359 2241 1098 1978 
Q 838 1716 838 1322 
z
" transform="scale(0.015625)"/>
       </defs>
       <use xlink:href="#ArialMT-38"/>
       <use xlink:href="#ArialMT-30" transform="translate(55.615234 0)"/>
      </g>
     </g>
    </g>
    <g id="text_4">
     <!-- Time [ms] -->
     <g transform="translate(73.652505 114.573733) scale(0.07 -0.07)">
      <defs>
       <path id="ArialMT-54" d="M 1659 0 
L 1659 4041 
L 150 4041 
L 150 4581 
L 3781 4581 
L 3781 4041 
L 2266 4041 
L 2266 0 
L 1659 0 
z
" transform="scale(0.015625)"/>
       <path id="ArialMT-69" d="M 425 3934 
L 425 4581 
L 988 4581 
L 988 3934 
L 425 3934 
z
M 425 0 
L 425 3319 
L 988 3319 
L 988 0 
L 425 0 
z
" transform="scale(0.015625)"/>
       <path id="ArialMT-6d" d="M 422 0 
L 422 3319 
L 925 3319 
L 925 2853 
Q 1081 3097 1340 3245 
Q 1600 3394 1931 3394 
Q 2300 3394 2536 3241 
Q 2772 3088 2869 2813 
Q 3263 3394 3894 3394 
Q 4388 3394 4653 3120 
Q 4919 2847 4919 2278 
L 4919 0 
L 4359 0 
L 4359 2091 
Q 4359 2428 4304 2576 
Q 4250 2725 4106 2815 
Q 3963 2906 3769 2906 
Q 3419 2906 3187 2673 
Q 2956 2441 2956 1928 
L 2956 0 
L 2394 0 
L 2394 2156 
Q 2394 2531 2256 2718 
Q 2119 2906 1806 2906 
Q 1569 2906 1367 2781 
Q 1166 2656 1075 2415 
Q 984 2175 984 1722 
L 984 0 
L 422 0 
z
" transform="scale(0.015625)"/>
       <path id="ArialMT-65" d="M 2694 1069 
L 3275 997 
Q 3138 488 2766 206 
Q 2394 -75 1816 -75 
Q 1088 -75 661 373 
Q 234 822 234 1631 
Q 234 2469 665 2931 
Q 1097 3394 1784 3394 
Q 2450 3394 2872 2941 
Q 3294 2488 3294 1666 
Q 3294 1616 3291 1516 
L 816 1516 
Q 847 969 1125 678 
Q 1403 388 1819 388 
Q 2128 388 2347 550 
Q 2566 713 2694 1069 
z
M 847 1978 
L 2700 1978 
Q 2663 2397 2488 2606 
Q 2219 2931 1791 2931 
Q 1403 2931 1139 2672 
Q 875 2413 847 1978 
z
" transform="scale(0.015625)"/>
       <path id="ArialMT-20" transform="scale(0.015625)"/>
       <path id="ArialMT-5b" d="M 434 -1272 
L 434 4581 
L 1675 4581 
L 1675 4116 
L 997 4116 
L 997 -806 
L 1675 -806 
L 1675 -1272 
L 434 -1272 
z
" transform="scale(0.015625)"/>
       <path id="ArialMT-73" d="M 197 991 
L 753 1078 
Q 800 744 1014 566 
Q 1228 388 1613 388 
Q 2000 388 2187 545 
Q 2375 703 2375 916 
Q 2375 1106 2209 1216 
Q 2094 1291 1634 1406 
Q 1016 1563 777 1677 
Q 538 1791 414 1992 
Q 291 2194 291 2438 
Q 291 2659 392 2848 
Q 494 3038 669 3163 
Q 800 3259 1026 3326 
Q 1253 3394 1513 3394 
Q 1903 3394 2198 3281 
Q 2494 3169 2634 2976 
Q 2775 2784 2828 2463 
L 2278 2388 
Q 2241 2644 2061 2787 
Q 1881 2931 1553 2931 
Q 1166 2931 1000 2803 
Q 834 2675 834 2503 
Q 834 2394 903 2306 
Q 972 2216 1119 2156 
Q 1203 2125 1616 2013 
Q 2213 1853 2448 1751 
Q 2684 1650 2818 1456 
Q 2953 1263 2953 975 
Q 2953 694 2789 445 
Q 2625 197 2315 61 
Q 2006 -75 1616 -75 
Q 969 -75 630 194 
Q 291 463 197 991 
z
" transform="scale(0.015625)"/>
       <path id="ArialMT-5d" d="M 1363 -1272 
L 122 -1272 
L 122 -806 
L 800 -806 
L 800 4116 
L 122 4116 
L 122 4581 
L 1363 4581 
L 1363 -1272 
z
" transform="scale(0.015625)"/>
      </defs>
      <use xlink:href="#ArialMT-54"/>
      <use xlink:href="#ArialMT-69" transform="translate(57.333984 0)"/>
      <use xlink:href="#ArialMT-6d" transform="translate(79.550781 0)"/>
      <use xlink:href="#ArialMT-65" transform="translate(162.851562 0)"/>
      <use xlink:href="#ArialMT-20" transform="translate(218.466797 0)"/>
      <use xlink:href="#ArialMT-5b" transform="translate(246.25 0)"/>
      <use xlink:href="#ArialMT-6d" transform="translate(274.033203 0)"/>
      <use xlink:href="#ArialMT-73" transform="translate(357.333984 0)"/>
      <use xlink:href="#ArialMT-5d" transform="translate(407.333984 0)"/>
     </g>
    </g>
   </g>
   <g id="matplotlib.axis_2">
    <g id="ytick_1">
     <g id="line2d_5">
      <defs>
       <path id="m0fe29a7c08" d="M 0 0 
L -2.267717 0 
" style="stroke: #000000; stroke-width: 0.566929"/>
      </defs>
      <g>
       <use xlink:href="#m0fe29a7c08" x="32.187873" y="97.521247" style="stroke: #000000; stroke-width: 0.566929"/>
      </g>
     </g>
     <g id="text_5">
      <!-- −1.5 -->
      <g transform="translate(14.101719 100.026481) scale(0.07 -0.07)">
       <defs>
        <path id="ArialMT-2212" d="M 3381 1997 
L 356 1997 
L 356 2522 
L 3381 2522 
L 3381 1997 
z
" transform="scale(0.015625)"/>
        <path id="ArialMT-31" d="M 2384 0 
L 1822 0 
L 1822 3584 
Q 1619 3391 1289 3197 
Q 959 3003 697 2906 
L 697 3450 
Q 1169 3672 1522 3987 
Q 1875 4303 2022 4600 
L 2384 4600 
L 2384 0 
z
" transform="scale(0.015625)"/>
        <path id="ArialMT-2e" d="M 581 0 
L 581 641 
L 1222 641 
L 1222 0 
L 581 0 
z
" transform="scale(0.015625)"/>
        <path id="ArialMT-35" d="M 266 1200 
L 856 1250 
Q 922 819 1161 601 
Q 1400 384 1738 384 
Q 2144 384 2425 690 
Q 2706 997 2706 1503 
Q 2706 1984 2436 2262 
Q 2166 2541 1728 2541 
Q 1456 2541 1237 2417 
Q 1019 2294 894 2097 
L 366 2166 
L 809 4519 
L 3088 4519 
L 3088 3981 
L 1259 3981 
L 1013 2750 
Q 1425 3038 1878 3038 
Q 2478 3038 2890 2622 
Q 3303 2206 3303 1553 
Q 3303 931 2941 478 
Q 2500 -78 1738 -78 
Q 1113 -78 717 272 
Q 322 622 266 1200 
z
" transform="scale(0.015625)"/>
       </defs>
       <use xlink:href="#ArialMT-2212"/>
       <use xlink:href="#ArialMT-31" transform="translate(58.398438 0)"/>
       <use xlink:href="#ArialMT-2e" transform="translate(114.013672 0)"/>
       <use xlink:href="#ArialMT-35" transform="translate(141.796875 0)"/>
      </g>
     </g>
    </g>
    <g id="ytick_2">
     <g id="line2d_6">
      <g>
       <use xlink:href="#m0fe29a7c08" x="32.187873" y="58.4122" style="stroke: #000000; stroke-width: 0.566929"/>
      </g>
     </g>
     <g id="text_6">
      <!-- 0.0 -->
      <g transform="translate(18.190156 60.917435) scale(0.07 -0.07)">
       <use xlink:href="#ArialMT-30"/>
       <use xlink:href="#ArialMT-2e" transform="translate(55.615234 0)"/>
       <use xlink:href="#ArialMT-30" transform="translate(83.398438 0)"/>
      </g>
     </g>
    </g>
    <g id="ytick_3">
     <g id="line2d_7">
      <g>
       <use xlink:href="#m0fe29a7c08" x="32.187873" y="19.303154" style="stroke: #000000; stroke-width: 0.566929"/>
      </g>
     </g>
     <g id="text_7">
      <!-- 1.5 -->
      <g transform="translate(18.190156 21.808389) scale(0.07 -0.07)">
       <use xlink:href="#ArialMT-31"/>
       <use xlink:href="#ArialMT-2e" transform="translate(55.615234 0)"/>
       <use xlink:href="#ArialMT-35" transform="translate(83.398438 0)"/>
      </g>
     </g>
    </g>
    <g id="text_8">
     <!-- Amplitude [μV] -->
     <g transform="translate(12.210469 81.540274) rotate(-90) scale(0.07 -0.07)">
      <defs>
       <path id="ArialMT-41" d="M -9 0 
L 1750 4581 
L 2403 4581 
L 4278 0 
L 3588 0 
L 3053 1388 
L 1138 1388 
L 634 0 
L -9 0 
z
M 1313 1881 
L 2866 1881 
L 2388 3150 
Q 2169 3728 2063 4100 
Q 1975 3659 1816 3225 
L 1313 1881 
z
" transform="scale(0.015625)"/>
       <path id="ArialMT-70" d="M 422 -1272 
L 422 3319 
L 934 3319 
L 934 2888 
Q 1116 3141 1344 3267 
Q 1572 3394 1897 3394 
Q 2322 3394 2647 3175 
Q 2972 2956 3137 2557 
Q 3303 2159 3303 1684 
Q 3303 1175 3120 767 
Q 2938 359 2589 142 
Q 2241 -75 1856 -75 
Q 1575 -75 1351 44 
Q 1128 163 984 344 
L 984 -1272 
L 422 -1272 
z
M 931 1641 
Q 931 1000 1190 694 
Q 1450 388 1819 388 
Q 2194 388 2461 705 
Q 2728 1022 2728 1688 
Q 2728 2322 2467 2637 
Q 2206 2953 1844 2953 
Q 1484 2953 1207 2617 
Q 931 2281 931 1641 
z
" transform="scale(0.015625)"/>
       <path id="ArialMT-6c" d="M 409 0 
L 409 4581 
L 972 4581 
L 972 0 
L 409 0 
z
" transform="scale(0.015625)"/>
       <path id="ArialMT-74" d="M 1650 503 
L 1731 6 
Q 1494 -44 1306 -44 
Q 1000 -44 831 53 
Q 663 150 594 308 
Q 525 466 525 972 
L 525 2881 
L 113 2881 
L 113 3319 
L 525 3319 
L 525 4141 
L 1084 4478 
L 1084 3319 
L 1650 3319 
L 1650 2881 
L 1084 2881 
L 1084 941 
Q 1084 700 1114 631 
Q 1144 563 1211 522 
Q 1278 481 1403 481 
Q 1497 481 1650 503 
z
" transform="scale(0.015625)"/>
       <path id="ArialMT-75" d="M 2597 0 
L 2597 488 
Q 2209 -75 1544 -75 
Q 1250 -75 995 37 
Q 741 150 617 320 
Q 494 491 444 738 
Q 409 903 409 1263 
L 409 3319 
L 972 3319 
L 972 1478 
Q 972 1038 1006 884 
Q 1059 663 1231 536 
Q 1403 409 1656 409 
Q 1909 409 2131 539 
Q 2353 669 2445 892 
Q 2538 1116 2538 1541 
L 2538 3319 
L 3100 3319 
L 3100 0 
L 2597 0 
z
" transform="scale(0.015625)"/>
       <path id="ArialMT-64" d="M 2575 0 
L 2575 419 
Q 2259 -75 1647 -75 
Q 1250 -75 917 144 
Q 584 363 401 755 
Q 219 1147 219 1656 
Q 219 2153 384 2558 
Q 550 2963 881 3178 
Q 1213 3394 1622 3394 
Q 1922 3394 2156 3267 
Q 2391 3141 2538 2938 
L 2538 4581 
L 3097 4581 
L 3097 0 
L 2575 0 
z
M 797 1656 
Q 797 1019 1065 703 
Q 1334 388 1700 388 
Q 2069 388 2326 689 
Q 2584 991 2584 1609 
Q 2584 2291 2321 2609 
Q 2059 2928 1675 2928 
Q 1300 2928 1048 2622 
Q 797 2316 797 1656 
z
" transform="scale(0.015625)"/>
       <path id="ArialMT-3bc" d="M 3181 3319 
L 3181 0 
L 2678 0 
L 2678 394 
Q 2516 144 2356 50 
Q 2138 -78 1847 -78 
Q 1588 -78 1388 25 
Q 1238 103 1056 334 
L 1056 -1272 
L 500 -1272 
L 500 3319 
L 1056 3319 
L 1056 1913 
Q 1056 1147 1137 920 
Q 1219 694 1401 562 
Q 1584 431 1822 431 
Q 2072 431 2269 568 
Q 2466 706 2547 923 
Q 2628 1141 2628 1903 
L 2628 3319 
L 3181 3319 
z
" transform="scale(0.015625)"/>
       <path id="ArialMT-56" d="M 1803 0 
L 28 4581 
L 684 4581 
L 1875 1253 
Q 2019 853 2116 503 
Q 2222 878 2363 1253 
L 3600 4581 
L 4219 4581 
L 2425 0 
L 1803 0 
z
" transform="scale(0.015625)"/>
      </defs>
      <use xlink:href="#ArialMT-41"/>
      <use xlink:href="#ArialMT-6d" transform="translate(66.699219 0)"/>
      <use xlink:href="#ArialMT-70" transform="translate(150 0)"/>
      <use xlink:href="#ArialMT-6c" transform="translate(205.615234 0)"/>
      <use xlink:href="#ArialMT-69" transform="translate(227.832031 0)"/>
      <use xlink:href="#ArialMT-74" transform="translate(250.048828 0)"/>
      <use xlink:href="#ArialMT-75" transform="translate(277.832031 0)"/>
      <use xlink:href="#ArialMT-64" transform="translate(333.447266 0)"/>
      <use xlink:href="#ArialMT-65" transform="translate(389.0625 0)"/>
      <use xlink:href="#ArialMT-20" transform="translate(444.677734 0)"/>
      <use xlink:href="#ArialMT-5b" transform="translate(472.460938 0)"/>
      <use xlink:href="#ArialMT-3bc" transform="translate(500.244141 0)"/>
      <use xlink:href="#ArialMT-56" transform="translate(557.861328 0)"/>
      <use xlink:href="#ArialMT-5d" transform="translate(624.560547 0)"/>
     </g>
    </g>
   </g>
   <g id="text_9">
    <!-- ax.stx_mean_std() -->
    <g transform="translate(55.980786 13.02375) scale(0.08 -0.08)">
     <defs>
      <path id="ArialMT-61" d="M 2588 409 
Q 2275 144 1986 34 
Q 1697 -75 1366 -75 
Q 819 -75 525 192 
Q 231 459 231 875 
Q 231 1119 342 1320 
Q 453 1522 633 1644 
Q 813 1766 1038 1828 
Q 1203 1872 1538 1913 
Q 2219 1994 2541 2106 
Q 2544 2222 2544 2253 
Q 2544 2597 2384 2738 
Q 2169 2928 1744 2928 
Q 1347 2928 1158 2789 
Q 969 2650 878 2297 
L 328 2372 
Q 403 2725 575 2942 
Q 747 3159 1072 3276 
Q 1397 3394 1825 3394 
Q 2250 3394 2515 3294 
Q 2781 3194 2906 3042 
Q 3031 2891 3081 2659 
Q 3109 2516 3109 2141 
L 3109 1391 
Q 3109 606 3145 398 
Q 3181 191 3288 0 
L 2700 0 
Q 2613 175 2588 409 
z
M 2541 1666 
Q 2234 1541 1622 1453 
Q 1275 1403 1131 1340 
Q 988 1278 909 1158 
Q 831 1038 831 891 
Q 831 666 1001 516 
Q 1172 366 1500 366 
Q 1825 366 2078 508 
Q 2331 650 2450 897 
Q 2541 1088 2541 1459 
L 2541 1666 
z
" transform="scale(0.015625)"/>
      <path id="ArialMT-78" d="M 47 0 
L 1259 1725 
L 138 3319 
L 841 3319 
L 1350 2541 
Q 1494 2319 1581 2169 
Q 1719 2375 1834 2534 
L 2394 3319 
L 3066 3319 
L 1919 1756 
L 3153 0 
L 2463 0 
L 1781 1031 
L 1600 1309 
L 728 0 
L 47 0 
z
" transform="scale(0.015625)"/>
      <path id="ArialMT-5f" d="M -97 -1272 
L -97 -866 
L 3631 -866 
L 3631 -1272 
L -97 -1272 
z
" transform="scale(0.015625)"/>
      <path id="ArialMT-6e" d="M 422 0 
L 422 3319 
L 928 3319 
L 928 2847 
Q 1294 3394 1984 3394 
Q 2284 3394 2536 3286 
Q 2788 3178 2913 3003 
Q 3038 2828 3088 2588 
Q 3119 2431 3119 2041 
L 3119 0 
L 2556 0 
L 2556 2019 
Q 2556 2363 2490 2533 
Q 2425 2703 2258 2804 
Q 2091 2906 1866 2906 
Q 1506 2906 1245 2678 
Q 984 2450 984 1813 
L 984 0 
L 422 0 
z
" transform="scale(0.015625)"/>
      <path id="ArialMT-28" d="M 1497 -1347 
Q 1031 -759 709 28 
Q 388 816 388 1659 
Q 388 2403 628 3084 
Q 909 3875 1497 4659 
L 1900 4659 
Q 1522 4009 1400 3731 
Q 1209 3300 1100 2831 
Q 966 2247 966 1656 
Q 966 153 1900 -1347 
L 1497 -1347 
z
" transform="scale(0.015625)"/>
      <path id="ArialMT-29" d="M 791 -1347 
L 388 -1347 
Q 1322 153 1322 1656 
Q 1322 2244 1188 2822 
Q 1081 3291 891 3722 
Q 769 4003 388 4659 
L 791 4659 
Q 1378 3875 1659 3084 
Q 1900 2403 1900 1659 
Q 1900 816 1576 28 
Q 1253 -759 791 -1347 
z
" transform="scale(0.015625)"/>
     </defs>
     <use xlink:href="#ArialMT-61"/>
     <use xlink:href="#ArialMT-78" transform="translate(55.615234 0)"/>
     <use xlink:href="#ArialMT-2e" transform="translate(105.615234 0)"/>
     <use xlink:href="#ArialMT-73" transform="translate(133.398438 0)"/>
     <use xlink:href="#ArialMT-74" transform="translate(183.398438 0)"/>
     <use xlink:href="#ArialMT-78" transform="translate(211.181641 0)"/>
     <use xlink:href="#ArialMT-5f" transform="translate(261.181641 0)"/>
     <use xlink:href="#ArialMT-6d" transform="translate(316.796875 0)"/>
     <use xlink:href="#ArialMT-65" transform="translate(400.097656 0)"/>
     <use xlink:href="#ArialMT-61" transform="translate(455.712891 0)"/>
     <use xlink:href="#ArialMT-6e" transform="translate(511.328125 0)"/>
     <use xlink:href="#ArialMT-5f" transform="translate(566.943359 0)"/>
     <use xlink:href="#ArialMT-73" transform="translate(622.558594 0)"/>
     <use xlink:href="#ArialMT-74" transform="translate(672.558594 0)"/>
     <use xlink:href="#ArialMT-64" transform="translate(700.341797 0)"/>
     <use xlink:href="#ArialMT-28" transform="translate(755.957031 0)"/>
     <use xlink:href="#ArialMT-29" transform="translate(789.257812 0)"/>
    </g>
   </g>
   <g id="patch_3">
    <path d="M 32.187873 98.393829 
L 32.187873 19.02375 
" style="fill: none; stroke: #000000; stroke-width: 0.566929; stroke-linejoin: miter; stroke-linecap: square"/>
   </g>
   <g id="patch_4">
    <path d="M 32.187873 98.393829 
L 145.5737 98.393829 
" style="fill: none; stroke: #000000; stroke-width: 0.566929; stroke-linejoin: miter; stroke-linecap: square"/>
   </g>
  </g>
 </g>
 <defs>
  <clipPath id="pf79a873b5c">
   <rect x="32.187873" y="19.02375" width="113.385827" height="79.370079"/>
  </clipPath>
 </defs>
</svg>
