<?xml version="1.0" encoding="utf-8" standalone="no"?>
<!DOCTYPE svg PUBLIC "-//W3C//DTD SVG 1.1//EN"
  "http://www.w3.org/Graphics/SVG/1.1/DTD/svg11.dtd">
<svg xmlns:xlink="http://www.w3.org/1999/xlink" width="150.633231pt" height="123.247014pt" viewBox="0 0 150.633231 123.247014" xmlns="http://www.w3.org/2000/svg" version="1.1">
 <metadata>
  <rdf:RDF xmlns:dc="http://purl.org/dc/elements/1.1/" xmlns:cc="http://creativecommons.org/ns#" xmlns:rdf="http://www.w3.org/1999/02/22-rdf-syntax-ns#">
   <cc:Work>
    <dc:type rdf:resource="http://purl.org/dc/dcmitype/StillImage"/>
    <dc:date>2025-12-16T12:08:43.165716</dc:date>
    <dc:format>image/svg+xml</dc:format>
    <dc:creator>
     <cc:Agent>
      <dc:title>Matplotlib v3.10.7, https://matplotlib.org/</dc:title>
     </cc:Agent>
    </dc:creator>
   </cc:Work>
  </rdf:RDF>
 </metadata>
 <defs>
  <style type="text/css">*{stroke-linejoin: round; stroke-linecap: butt}</style>
 </defs>
 <g id="figure_1">
  <g id="patch_1">
   <path d="M 0 123.247014 
L 150.633231 123.247014 
L 150.633231 0 
L 0 0 
L 0 123.247014 
z
" style="fill: none; opacity: 0"/>
  </g>
  <g id="axes_1">
   <g id="patch_2">
    <path d="M 30.047404 98.393829 
L 143.433231 98.393829 
L 143.433231 19.02375 
L 30.047404 19.02375 
L 30.047404 98.393829 
z
" style="fill: none; opacity: 0"/>
   </g>
   <g id="PathCollection_1">
    <defs>
     <path id="medb47f02bc" d="M 0 1.133858 
C 0.300703 1.133858 0.58913 1.014388 0.801759 0.801759 
C 1.014388 0.58913 1.133858 0.300703 1.133858 0 
C 1.133858 -0.300703 1.014388 -0.58913 0.801759 -0.801759 
C 0.58913 -1.014388 0.300703 -1.133858 0 -1.133858 
C -0.300703 -1.133858 -0.58913 -1.014388 -0.801759 -0.801759 
C -1.014388 -0.58913 -1.133858 -0.300703 -1.133858 0 
C -1.133858 0.300703 -1.014388 0.58913 -0.801759 0.801759 
C -0.58913 1.014388 -0.300703 1.133858 0 1.133858 
z
" style="stroke: #0080bf; stroke-opacity: 0.6"/>
    </defs>
    <g clip-path="url(#pe269f83275)">
     <use xlink:href="#medb47f02bc" x="73.96125" y="64.969247" style="fill: #0080bf; fill-opacity: 0.6; stroke: #0080bf; stroke-opacity: 0.6"/>
     <use xlink:href="#medb47f02bc" x="134.479924" y="43.20888" style="fill: #0080bf; fill-opacity: 0.6; stroke: #0080bf; stroke-opacity: 0.6"/>
     <use xlink:href="#medb47f02bc" x="111.506548" y="48.699473" style="fill: #0080bf; fill-opacity: 0.6; stroke: #0080bf; stroke-opacity: 0.6"/>
     <use xlink:href="#medb47f02bc" x="97.501608" y="78.331203" style="fill: #0080bf; fill-opacity: 0.6; stroke: #0080bf; stroke-opacity: 0.6"/>
     <use xlink:href="#medb47f02bc" x="51.008764" y="78.361398" style="fill: #0080bf; fill-opacity: 0.6; stroke: #0080bf; stroke-opacity: 0.6"/>
     <use xlink:href="#medb47f02bc" x="51.006231" y="71.820866" style="fill: #0080bf; fill-opacity: 0.6; stroke: #0080bf; stroke-opacity: 0.6"/>
     <use xlink:href="#medb47f02bc" x="40.722122" y="63.551316" style="fill: #0080bf; fill-opacity: 0.6; stroke: #0080bf; stroke-opacity: 0.6"/>
     <use xlink:href="#medb47f02bc" x="125.600426" y="49.530833" style="fill: #0080bf; fill-opacity: 0.6; stroke: #0080bf; stroke-opacity: 0.6"/>
     <use xlink:href="#medb47f02bc" x="97.75963" y="64.847224" style="fill: #0080bf; fill-opacity: 0.6; stroke: #0080bf; stroke-opacity: 0.6"/>
     <use xlink:href="#medb47f02bc" x="108.993958" y="56.516102" style="fill: #0080bf; fill-opacity: 0.6; stroke: #0080bf; stroke-opacity: 0.6"/>
     <use xlink:href="#medb47f02bc" x="36.783388" y="71.632035" style="fill: #0080bf; fill-opacity: 0.6; stroke: #0080bf; stroke-opacity: 0.6"/>
     <use xlink:href="#medb47f02bc" x="136.496135" y="35.218301" style="fill: #0080bf; fill-opacity: 0.6; stroke: #0080bf; stroke-opacity: 0.6"/>
     <use xlink:href="#medb47f02bc" x="122.057215" y="51.191507" style="fill: #0080bf; fill-opacity: 0.6; stroke: #0080bf; stroke-opacity: 0.6"/>
     <use xlink:href="#medb47f02bc" x="56.924406" y="67.49369" style="fill: #0080bf; fill-opacity: 0.6; stroke: #0080bf; stroke-opacity: 0.6"/>
     <use xlink:href="#medb47f02bc" x="53.719342" y="73.598236" style="fill: #0080bf; fill-opacity: 0.6; stroke: #0080bf; stroke-opacity: 0.6"/>
     <use xlink:href="#medb47f02bc" x="53.88525" y="63.641657" style="fill: #0080bf; fill-opacity: 0.6; stroke: #0080bf; stroke-opacity: 0.6"/>
     <use xlink:href="#medb47f02bc" x="66.577486" y="77.108007" style="fill: #0080bf; fill-opacity: 0.6; stroke: #0080bf; stroke-opacity: 0.6"/>
     <use xlink:href="#medb47f02bc" x="89.739278" y="62.85795" style="fill: #0080bf; fill-opacity: 0.6; stroke: #0080bf; stroke-opacity: 0.6"/>
     <use xlink:href="#medb47f02bc" x="79.990796" y="67.799366" style="fill: #0080bf; fill-opacity: 0.6; stroke: #0080bf; stroke-opacity: 0.6"/>
     <use xlink:href="#medb47f02bc" x="65.21065" y="86.334516" style="fill: #0080bf; fill-opacity: 0.6; stroke: #0080bf; stroke-opacity: 0.6"/>
     <use xlink:href="#medb47f02bc" x="98.887487" y="51.83206" style="fill: #0080bf; fill-opacity: 0.6; stroke: #0080bf; stroke-opacity: 0.6"/>
     <use xlink:href="#medb47f02bc" x="49.273078" y="73.658876" style="fill: #0080bf; fill-opacity: 0.6; stroke: #0080bf; stroke-opacity: 0.6"/>
     <use xlink:href="#medb47f02bc" x="65.306811" y="69.636468" style="fill: #0080bf; fill-opacity: 0.6; stroke: #0080bf; stroke-opacity: 0.6"/>
     <use xlink:href="#medb47f02bc" x="73.102242" y="68.988093" style="fill: #0080bf; fill-opacity: 0.6; stroke: #0080bf; stroke-opacity: 0.6"/>
     <use xlink:href="#medb47f02bc" x="82.524771" y="78.310287" style="fill: #0080bf; fill-opacity: 0.6; stroke: #0080bf; stroke-opacity: 0.6"/>
     <use xlink:href="#medb47f02bc" x="117.092541" y="52.098284" style="fill: #0080bf; fill-opacity: 0.6; stroke: #0080bf; stroke-opacity: 0.6"/>
     <use xlink:href="#medb47f02bc" x="55.594099" y="77.776424" style="fill: #0080bf; fill-opacity: 0.6; stroke: #0080bf; stroke-opacity: 0.6"/>
     <use xlink:href="#medb47f02bc" x="88.634096" y="68.718161" style="fill: #0080bf; fill-opacity: 0.6; stroke: #0080bf; stroke-opacity: 0.6"/>
     <use xlink:href="#medb47f02bc" x="96.845776" y="57.901593" style="fill: #0080bf; fill-opacity: 0.6; stroke: #0080bf; stroke-opacity: 0.6"/>
     <use xlink:href="#medb47f02bc" x="39.500224" y="76.25811" style="fill: #0080bf; fill-opacity: 0.6; stroke: #0080bf; stroke-opacity: 0.6"/>
     <use xlink:href="#medb47f02bc" x="98.43499" y="33.9937" style="fill: #0080bf; fill-opacity: 0.6; stroke: #0080bf; stroke-opacity: 0.6"/>
     <use xlink:href="#medb47f02bc" x="52.532353" y="73.231939" style="fill: #0080bf; fill-opacity: 0.6; stroke: #0080bf; stroke-opacity: 0.6"/>
     <use xlink:href="#medb47f02bc" x="41.454006" y="77.075787" style="fill: #0080bf; fill-opacity: 0.6; stroke: #0080bf; stroke-opacity: 0.6"/>
     <use xlink:href="#medb47f02bc" x="134.287838" y="40.744971" style="fill: #0080bf; fill-opacity: 0.6; stroke: #0080bf; stroke-opacity: 0.6"/>
     <use xlink:href="#medb47f02bc" x="136.046813" y="60.902743" style="fill: #0080bf; fill-opacity: 0.6; stroke: #0080bf; stroke-opacity: 0.6"/>
     <use xlink:href="#medb47f02bc" x="119.531608" y="46.574759" style="fill: #0080bf; fill-opacity: 0.6; stroke: #0080bf; stroke-opacity: 0.6"/>
     <use xlink:href="#medb47f02bc" x="66.61651" y="68.445683" style="fill: #0080bf; fill-opacity: 0.6; stroke: #0080bf; stroke-opacity: 0.6"/>
     <use xlink:href="#medb47f02bc" x="44.880315" y="50.579968" style="fill: #0080bf; fill-opacity: 0.6; stroke: #0080bf; stroke-opacity: 0.6"/>
     <use xlink:href="#medb47f02bc" x="106.489962" y="54.088582" style="fill: #0080bf; fill-opacity: 0.6; stroke: #0080bf; stroke-opacity: 0.6"/>
     <use xlink:href="#medb47f02bc" x="80.852871" y="59.5599" style="fill: #0080bf; fill-opacity: 0.6; stroke: #0080bf; stroke-opacity: 0.6"/>
     <use xlink:href="#medb47f02bc" x="47.43962" y="77.805226" style="fill: #0080bf; fill-opacity: 0.6; stroke: #0080bf; stroke-opacity: 0.6"/>
     <use xlink:href="#medb47f02bc" x="86.632381" y="73.738279" style="fill: #0080bf; fill-opacity: 0.6; stroke: #0080bf; stroke-opacity: 0.6"/>
     <use xlink:href="#medb47f02bc" x="38.233299" y="68.426497" style="fill: #0080bf; fill-opacity: 0.6; stroke: #0080bf; stroke-opacity: 0.6"/>
     <use xlink:href="#medb47f02bc" x="130.132099" y="33.167476" style="fill: #0080bf; fill-opacity: 0.6; stroke: #0080bf; stroke-opacity: 0.6"/>
     <use xlink:href="#medb47f02bc" x="61.802341" y="62.236566" style="fill: #0080bf; fill-opacity: 0.6; stroke: #0080bf; stroke-opacity: 0.6"/>
     <use xlink:href="#medb47f02bc" x="104.209566" y="63.205703" style="fill: #0080bf; fill-opacity: 0.6; stroke: #0080bf; stroke-opacity: 0.6"/>
     <use xlink:href="#medb47f02bc" x="67.361978" y="52.896955" style="fill: #0080bf; fill-opacity: 0.6; stroke: #0080bf; stroke-opacity: 0.6"/>
     <use xlink:href="#medb47f02bc" x="89.246829" y="75.253607" style="fill: #0080bf; fill-opacity: 0.6; stroke: #0080bf; stroke-opacity: 0.6"/>
     <use xlink:href="#medb47f02bc" x="92.045208" y="51.489927" style="fill: #0080bf; fill-opacity: 0.6; stroke: #0080bf; stroke-opacity: 0.6"/>
     <use xlink:href="#medb47f02bc" x="54.037545" y="49.718659" style="fill: #0080bf; fill-opacity: 0.6; stroke: #0080bf; stroke-opacity: 0.6"/>
     <use xlink:href="#medb47f02bc" x="136.461975" y="50.195812" style="fill: #0080bf; fill-opacity: 0.6; stroke: #0080bf; stroke-opacity: 0.6"/>
     <use xlink:href="#medb47f02bc" x="116.037656" y="54.205826" style="fill: #0080bf; fill-opacity: 0.6; stroke: #0080bf; stroke-opacity: 0.6"/>
     <use xlink:href="#medb47f02bc" x="133.301914" y="39.196272" style="fill: #0080bf; fill-opacity: 0.6; stroke: #0080bf; stroke-opacity: 0.6"/>
     <use xlink:href="#medb47f02bc" x="128.609816" y="48.063244" style="fill: #0080bf; fill-opacity: 0.6; stroke: #0080bf; stroke-opacity: 0.6"/>
     <use xlink:href="#medb47f02bc" x="97.421938" y="73.41043" style="fill: #0080bf; fill-opacity: 0.6; stroke: #0080bf; stroke-opacity: 0.6"/>
     <use xlink:href="#medb47f02bc" x="131.450696" y="40.348428" style="fill: #0080bf; fill-opacity: 0.6; stroke: #0080bf; stroke-opacity: 0.6"/>
     <use xlink:href="#medb47f02bc" x="43.916131" y="90.981547" style="fill: #0080bf; fill-opacity: 0.6; stroke: #0080bf; stroke-opacity: 0.6"/>
     <use xlink:href="#medb47f02bc" x="55.206422" y="68.685686" style="fill: #0080bf; fill-opacity: 0.6; stroke: #0080bf; stroke-opacity: 0.6"/>
     <use xlink:href="#medb47f02bc" x="39.371753" y="91.32385" style="fill: #0080bf; fill-opacity: 0.6; stroke: #0080bf; stroke-opacity: 0.6"/>
     <use xlink:href="#medb47f02bc" x="68.792482" y="50.610305" style="fill: #0080bf; fill-opacity: 0.6; stroke: #0080bf; stroke-opacity: 0.6"/>
     <use xlink:href="#medb47f02bc" x="75.446153" y="74.198448" style="fill: #0080bf; fill-opacity: 0.6; stroke: #0080bf; stroke-opacity: 0.6"/>
     <use xlink:href="#medb47f02bc" x="63.122536" y="74.290555" style="fill: #0080bf; fill-opacity: 0.6; stroke: #0080bf; stroke-opacity: 0.6"/>
     <use xlink:href="#medb47f02bc" x="121.668045" y="36.124754" style="fill: #0080bf; fill-opacity: 0.6; stroke: #0080bf; stroke-opacity: 0.6"/>
     <use xlink:href="#medb47f02bc" x="72.093008" y="80.723316" style="fill: #0080bf; fill-opacity: 0.6; stroke: #0080bf; stroke-opacity: 0.6"/>
     <use xlink:href="#medb47f02bc" x="64.12935" y="67.623277" style="fill: #0080bf; fill-opacity: 0.6; stroke: #0080bf; stroke-opacity: 0.6"/>
     <use xlink:href="#medb47f02bc" x="91.623576" y="43.502884" style="fill: #0080bf; fill-opacity: 0.6; stroke: #0080bf; stroke-opacity: 0.6"/>
     <use xlink:href="#medb47f02bc" x="49.423317" y="94.786098" style="fill: #0080bf; fill-opacity: 0.6; stroke: #0080bf; stroke-opacity: 0.6"/>
     <use xlink:href="#medb47f02bc" x="118.88035" y="44.461305" style="fill: #0080bf; fill-opacity: 0.6; stroke: #0080bf; stroke-opacity: 0.6"/>
     <use xlink:href="#medb47f02bc" x="42.451743" y="76.618399" style="fill: #0080bf; fill-opacity: 0.6; stroke: #0080bf; stroke-opacity: 0.6"/>
     <use xlink:href="#medb47f02bc" x="138.27933" y="29.309582" style="fill: #0080bf; fill-opacity: 0.6; stroke: #0080bf; stroke-opacity: 0.6"/>
     <use xlink:href="#medb47f02bc" x="115.734309" y="61.943087" style="fill: #0080bf; fill-opacity: 0.6; stroke: #0080bf; stroke-opacity: 0.6"/>
     <use xlink:href="#medb47f02bc" x="55.493464" y="88.908995" style="fill: #0080bf; fill-opacity: 0.6; stroke: #0080bf; stroke-opacity: 0.6"/>
     <use xlink:href="#medb47f02bc" x="35.201305" y="76.777808" style="fill: #0080bf; fill-opacity: 0.6; stroke: #0080bf; stroke-opacity: 0.6"/>
     <use xlink:href="#medb47f02bc" x="120.273587" y="42.585316" style="fill: #0080bf; fill-opacity: 0.6; stroke: #0080bf; stroke-opacity: 0.6"/>
     <use xlink:href="#medb47f02bc" x="108.866316" y="48.039557" style="fill: #0080bf; fill-opacity: 0.6; stroke: #0080bf; stroke-opacity: 0.6"/>
     <use xlink:href="#medb47f02bc" x="111.192831" y="45.946422" style="fill: #0080bf; fill-opacity: 0.6; stroke: #0080bf; stroke-opacity: 0.6"/>
     <use xlink:href="#medb47f02bc" x="115.63196" y="55.670892" style="fill: #0080bf; fill-opacity: 0.6; stroke: #0080bf; stroke-opacity: 0.6"/>
     <use xlink:href="#medb47f02bc" x="42.398596" y="76.95471" style="fill: #0080bf; fill-opacity: 0.6; stroke: #0080bf; stroke-opacity: 0.6"/>
     <use xlink:href="#medb47f02bc" x="72.272871" y="63.361834" style="fill: #0080bf; fill-opacity: 0.6; stroke: #0080bf; stroke-opacity: 0.6"/>
     <use xlink:href="#medb47f02bc" x="46.791638" y="85.793261" style="fill: #0080bf; fill-opacity: 0.6; stroke: #0080bf; stroke-opacity: 0.6"/>
     <use xlink:href="#medb47f02bc" x="125.277682" y="22.631481" style="fill: #0080bf; fill-opacity: 0.6; stroke: #0080bf; stroke-opacity: 0.6"/>
     <use xlink:href="#medb47f02bc" x="100.089642" y="49.297298" style="fill: #0080bf; fill-opacity: 0.6; stroke: #0080bf; stroke-opacity: 0.6"/>
     <use xlink:href="#medb47f02bc" x="69.377287" y="81.447592" style="fill: #0080bf; fill-opacity: 0.6; stroke: #0080bf; stroke-opacity: 0.6"/>
     <use xlink:href="#medb47f02bc" x="41.297163" y="72.618217" style="fill: #0080bf; fill-opacity: 0.6; stroke: #0080bf; stroke-opacity: 0.6"/>
     <use xlink:href="#medb47f02bc" x="67.285433" y="79.894265" style="fill: #0080bf; fill-opacity: 0.6; stroke: #0080bf; stroke-opacity: 0.6"/>
     <use xlink:href="#medb47f02bc" x="68.777041" y="59.268869" style="fill: #0080bf; fill-opacity: 0.6; stroke: #0080bf; stroke-opacity: 0.6"/>
     <use xlink:href="#medb47f02bc" x="111.255748" y="36.708242" style="fill: #0080bf; fill-opacity: 0.6; stroke: #0080bf; stroke-opacity: 0.6"/>
     <use xlink:href="#medb47f02bc" x="101.587377" y="63.332208" style="fill: #0080bf; fill-opacity: 0.6; stroke: #0080bf; stroke-opacity: 0.6"/>
     <use xlink:href="#medb47f02bc" x="127.810013" y="31.772325" style="fill: #0080bf; fill-opacity: 0.6; stroke: #0080bf; stroke-opacity: 0.6"/>
     <use xlink:href="#medb47f02bc" x="84.220561" y="56.843789" style="fill: #0080bf; fill-opacity: 0.6; stroke: #0080bf; stroke-opacity: 0.6"/>
     <use xlink:href="#medb47f02bc" x="47.182914" y="68.198983" style="fill: #0080bf; fill-opacity: 0.6; stroke: #0080bf; stroke-opacity: 0.6"/>
     <use xlink:href="#medb47f02bc" x="109.537223" y="29.078197" style="fill: #0080bf; fill-opacity: 0.6; stroke: #0080bf; stroke-opacity: 0.6"/>
     <use xlink:href="#medb47f02bc" x="114.530632" y="51.217119" style="fill: #0080bf; fill-opacity: 0.6; stroke: #0080bf; stroke-opacity: 0.6"/>
     <use xlink:href="#medb47f02bc" x="93.57525" y="66.03348" style="fill: #0080bf; fill-opacity: 0.6; stroke: #0080bf; stroke-opacity: 0.6"/>
     <use xlink:href="#medb47f02bc" x="115.600116" y="58.060582" style="fill: #0080bf; fill-opacity: 0.6; stroke: #0080bf; stroke-opacity: 0.6"/>
     <use xlink:href="#medb47f02bc" x="86.487294" y="69.798879" style="fill: #0080bf; fill-opacity: 0.6; stroke: #0080bf; stroke-opacity: 0.6"/>
     <use xlink:href="#medb47f02bc" x="89.526728" y="60.108011" style="fill: #0080bf; fill-opacity: 0.6; stroke: #0080bf; stroke-opacity: 0.6"/>
     <use xlink:href="#medb47f02bc" x="79.52822" y="59.682857" style="fill: #0080bf; fill-opacity: 0.6; stroke: #0080bf; stroke-opacity: 0.6"/>
     <use xlink:href="#medb47f02bc" x="37.291195" y="78.656679" style="fill: #0080bf; fill-opacity: 0.6; stroke: #0080bf; stroke-opacity: 0.6"/>
     <use xlink:href="#medb47f02bc" x="45.953704" y="68.671792" style="fill: #0080bf; fill-opacity: 0.6; stroke: #0080bf; stroke-opacity: 0.6"/>
    </g>
   </g>
   <g id="matplotlib.axis_1">
    <g id="xtick_1">
     <g id="line2d_1">
      <defs>
       <path id="m609e288143" d="M 0 0 
L 0 2.267717 
" style="stroke: #000000; stroke-width: 0.566929"/>
      </defs>
      <g>
       <use xlink:href="#m609e288143" x="43.374236" y="98.393829" style="stroke: #000000; stroke-width: 0.566929"/>
      </g>
     </g>
     <g id="text_1">
      <!-- 25 -->
      <g transform="translate(39.481579 107.672014) scale(0.07 -0.07)">
       <defs>
        <path id="ArialMT-32" d="M 3222 541 
L 3222 0 
L 194 0 
Q 188 203 259 391 
Q 375 700 629 1000 
Q 884 1300 1366 1694 
Q 2113 2306 2375 2664 
Q 2638 3022 2638 3341 
Q 2638 3675 2398 3904 
Q 2159 4134 1775 4134 
Q 1369 4134 1125 3890 
Q 881 3647 878 3216 
L 300 3275 
Q 359 3922 746 4261 
Q 1134 4600 1788 4600 
Q 2447 4600 2831 4234 
Q 3216 3869 3216 3328 
Q 3216 3053 3103 2787 
Q 2991 2522 2730 2228 
Q 2469 1934 1863 1422 
Q 1356 997 1212 845 
Q 1069 694 975 541 
L 3222 541 
z
" transform="scale(0.015625)"/>
        <path id="ArialMT-35" d="M 266 1200 
L 856 1250 
Q 922 819 1161 601 
Q 1400 384 1738 384 
Q 2144 384 2425 690 
Q 2706 997 2706 1503 
Q 2706 1984 2436 2262 
Q 2166 2541 1728 2541 
Q 1456 2541 1237 2417 
Q 1019 2294 894 2097 
L 366 2166 
L 809 4519 
L 3088 4519 
L 3088 3981 
L 1259 3981 
L 1013 2750 
Q 1425 3038 1878 3038 
Q 2478 3038 2890 2622 
Q 3303 2206 3303 1553 
Q 3303 931 2941 478 
Q 2500 -78 1738 -78 
Q 1113 -78 717 272 
Q 322 622 266 1200 
z
" transform="scale(0.015625)"/>
       </defs>
       <use xlink:href="#ArialMT-32"/>
       <use xlink:href="#ArialMT-35" transform="translate(55.615234 0)"/>
      </g>
     </g>
    </g>
    <g id="xtick_2">
     <g id="line2d_2">
      <g>
       <use xlink:href="#m609e288143" x="87.138976" y="98.393829" style="stroke: #000000; stroke-width: 0.566929"/>
      </g>
     </g>
     <g id="text_2">
      <!-- 50 -->
      <g transform="translate(83.24632 107.672014) scale(0.07 -0.07)">
       <defs>
        <path id="ArialMT-30" d="M 266 2259 
Q 266 3072 433 3567 
Q 600 4063 929 4331 
Q 1259 4600 1759 4600 
Q 2128 4600 2406 4451 
Q 2684 4303 2865 4023 
Q 3047 3744 3150 3342 
Q 3253 2941 3253 2259 
Q 3253 1453 3087 958 
Q 2922 463 2592 192 
Q 2263 -78 1759 -78 
Q 1097 -78 719 397 
Q 266 969 266 2259 
z
M 844 2259 
Q 844 1131 1108 757 
Q 1372 384 1759 384 
Q 2147 384 2411 759 
Q 2675 1134 2675 2259 
Q 2675 3391 2411 3762 
Q 2147 4134 1753 4134 
Q 1366 4134 1134 3806 
Q 844 3388 844 2259 
z
" transform="scale(0.015625)"/>
       </defs>
       <use xlink:href="#ArialMT-35"/>
       <use xlink:href="#ArialMT-30" transform="translate(55.615234 0)"/>
      </g>
     </g>
    </g>
    <g id="xtick_3">
     <g id="line2d_3">
      <g>
       <use xlink:href="#m609e288143" x="130.903717" y="98.393829" style="stroke: #000000; stroke-width: 0.566929"/>
      </g>
     </g>
     <g id="text_3">
      <!-- 75 -->
      <g transform="translate(127.011061 107.672014) scale(0.07 -0.07)">
       <defs>
        <path id="ArialMT-37" d="M 303 3981 
L 303 4522 
L 3269 4522 
L 3269 4084 
Q 2831 3619 2401 2847 
Q 1972 2075 1738 1259 
Q 1569 684 1522 0 
L 944 0 
Q 953 541 1156 1306 
Q 1359 2072 1739 2783 
Q 2119 3494 2547 3981 
L 303 3981 
z
" transform="scale(0.015625)"/>
       </defs>
       <use xlink:href="#ArialMT-37"/>
       <use xlink:href="#ArialMT-35" transform="translate(55.615234 0)"/>
      </g>
     </g>
    </g>
    <g id="text_4">
     <!-- Age [years] -->
     <g transform="translate(69.037974 114.573733) scale(0.07 -0.07)">
      <defs>
       <path id="ArialMT-41" d="M -9 0 
L 1750 4581 
L 2403 4581 
L 4278 0 
L 3588 0 
L 3053 1388 
L 1138 1388 
L 634 0 
L -9 0 
z
M 1313 1881 
L 2866 1881 
L 2388 3150 
Q 2169 3728 2063 4100 
Q 1975 3659 1816 3225 
L 1313 1881 
z
" transform="scale(0.015625)"/>
       <path id="ArialMT-67" d="M 319 -275 
L 866 -356 
Q 900 -609 1056 -725 
Q 1266 -881 1628 -881 
Q 2019 -881 2231 -725 
Q 2444 -569 2519 -288 
Q 2563 -116 2559 434 
Q 2191 0 1641 0 
Q 956 0 581 494 
Q 206 988 206 1678 
Q 206 2153 378 2554 
Q 550 2956 876 3175 
Q 1203 3394 1644 3394 
Q 2231 3394 2613 2919 
L 2613 3319 
L 3131 3319 
L 3131 450 
Q 3131 -325 2973 -648 
Q 2816 -972 2473 -1159 
Q 2131 -1347 1631 -1347 
Q 1038 -1347 672 -1080 
Q 306 -813 319 -275 
z
M 784 1719 
Q 784 1066 1043 766 
Q 1303 466 1694 466 
Q 2081 466 2343 764 
Q 2606 1063 2606 1700 
Q 2606 2309 2336 2618 
Q 2066 2928 1684 2928 
Q 1309 2928 1046 2623 
Q 784 2319 784 1719 
z
" transform="scale(0.015625)"/>
       <path id="ArialMT-65" d="M 2694 1069 
L 3275 997 
Q 3138 488 2766 206 
Q 2394 -75 1816 -75 
Q 1088 -75 661 373 
Q 234 822 234 1631 
Q 234 2469 665 2931 
Q 1097 3394 1784 3394 
Q 2450 3394 2872 2941 
Q 3294 2488 3294 1666 
Q 3294 1616 3291 1516 
L 816 1516 
Q 847 969 1125 678 
Q 1403 388 1819 388 
Q 2128 388 2347 550 
Q 2566 713 2694 1069 
z
M 847 1978 
L 2700 1978 
Q 2663 2397 2488 2606 
Q 2219 2931 1791 2931 
Q 1403 2931 1139 2672 
Q 875 2413 847 1978 
z
" transform="scale(0.015625)"/>
       <path id="ArialMT-20" transform="scale(0.015625)"/>
       <path id="ArialMT-5b" d="M 434 -1272 
L 434 4581 
L 1675 4581 
L 1675 4116 
L 997 4116 
L 997 -806 
L 1675 -806 
L 1675 -1272 
L 434 -1272 
z
" transform="scale(0.015625)"/>
       <path id="ArialMT-79" d="M 397 -1278 
L 334 -750 
Q 519 -800 656 -800 
Q 844 -800 956 -737 
Q 1069 -675 1141 -563 
Q 1194 -478 1313 -144 
Q 1328 -97 1363 -6 
L 103 3319 
L 709 3319 
L 1400 1397 
Q 1534 1031 1641 628 
Q 1738 1016 1872 1384 
L 2581 3319 
L 3144 3319 
L 1881 -56 
Q 1678 -603 1566 -809 
Q 1416 -1088 1222 -1217 
Q 1028 -1347 759 -1347 
Q 597 -1347 397 -1278 
z
" transform="scale(0.015625)"/>
       <path id="ArialMT-61" d="M 2588 409 
Q 2275 144 1986 34 
Q 1697 -75 1366 -75 
Q 819 -75 525 192 
Q 231 459 231 875 
Q 231 1119 342 1320 
Q 453 1522 633 1644 
Q 813 1766 1038 1828 
Q 1203 1872 1538 1913 
Q 2219 1994 2541 2106 
Q 2544 2222 2544 2253 
Q 2544 2597 2384 2738 
Q 2169 2928 1744 2928 
Q 1347 2928 1158 2789 
Q 969 2650 878 2297 
L 328 2372 
Q 403 2725 575 2942 
Q 747 3159 1072 3276 
Q 1397 3394 1825 3394 
Q 2250 3394 2515 3294 
Q 2781 3194 2906 3042 
Q 3031 2891 3081 2659 
Q 3109 2516 3109 2141 
L 3109 1391 
Q 3109 606 3145 398 
Q 3181 191 3288 0 
L 2700 0 
Q 2613 175 2588 409 
z
M 2541 1666 
Q 2234 1541 1622 1453 
Q 1275 1403 1131 1340 
Q 988 1278 909 1158 
Q 831 1038 831 891 
Q 831 666 1001 516 
Q 1172 366 1500 366 
Q 1825 366 2078 508 
Q 2331 650 2450 897 
Q 2541 1088 2541 1459 
L 2541 1666 
z
" transform="scale(0.015625)"/>
       <path id="ArialMT-72" d="M 416 0 
L 416 3319 
L 922 3319 
L 922 2816 
Q 1116 3169 1280 3281 
Q 1444 3394 1641 3394 
Q 1925 3394 2219 3213 
L 2025 2691 
Q 1819 2813 1613 2813 
Q 1428 2813 1281 2702 
Q 1134 2591 1072 2394 
Q 978 2094 978 1738 
L 978 0 
L 416 0 
z
" transform="scale(0.015625)"/>
       <path id="ArialMT-73" d="M 197 991 
L 753 1078 
Q 800 744 1014 566 
Q 1228 388 1613 388 
Q 2000 388 2187 545 
Q 2375 703 2375 916 
Q 2375 1106 2209 1216 
Q 2094 1291 1634 1406 
Q 1016 1563 777 1677 
Q 538 1791 414 1992 
Q 291 2194 291 2438 
Q 291 2659 392 2848 
Q 494 3038 669 3163 
Q 800 3259 1026 3326 
Q 1253 3394 1513 3394 
Q 1903 3394 2198 3281 
Q 2494 3169 2634 2976 
Q 2775 2784 2828 2463 
L 2278 2388 
Q 2241 2644 2061 2787 
Q 1881 2931 1553 2931 
Q 1166 2931 1000 2803 
Q 834 2675 834 2503 
Q 834 2394 903 2306 
Q 972 2216 1119 2156 
Q 1203 2125 1616 2013 
Q 2213 1853 2448 1751 
Q 2684 1650 2818 1456 
Q 2953 1263 2953 975 
Q 2953 694 2789 445 
Q 2625 197 2315 61 
Q 2006 -75 1616 -75 
Q 969 -75 630 194 
Q 291 463 197 991 
z
" transform="scale(0.015625)"/>
       <path id="ArialMT-5d" d="M 1363 -1272 
L 122 -1272 
L 122 -806 
L 800 -806 
L 800 4116 
L 122 4116 
L 122 4581 
L 1363 4581 
L 1363 -1272 
z
" transform="scale(0.015625)"/>
      </defs>
      <use xlink:href="#ArialMT-41"/>
      <use xlink:href="#ArialMT-67" transform="translate(66.699219 0)"/>
      <use xlink:href="#ArialMT-65" transform="translate(122.314453 0)"/>
      <use xlink:href="#ArialMT-20" transform="translate(177.929688 0)"/>
      <use xlink:href="#ArialMT-5b" transform="translate(205.712891 0)"/>
      <use xlink:href="#ArialMT-79" transform="translate(233.496094 0)"/>
      <use xlink:href="#ArialMT-65" transform="translate(283.496094 0)"/>
      <use xlink:href="#ArialMT-61" transform="translate(339.111328 0)"/>
      <use xlink:href="#ArialMT-72" transform="translate(394.726562 0)"/>
      <use xlink:href="#ArialMT-73" transform="translate(428.027344 0)"/>
      <use xlink:href="#ArialMT-5d" transform="translate(478.027344 0)"/>
     </g>
    </g>
   </g>
   <g id="matplotlib.axis_2">
    <g id="ytick_1">
     <g id="line2d_4">
      <defs>
       <path id="me38874823e" d="M 0 0 
L -2.267717 0 
" style="stroke: #000000; stroke-width: 0.566929"/>
      </defs>
      <g>
       <use xlink:href="#me38874823e" x="30.047404" y="82.947949" style="stroke: #000000; stroke-width: 0.566929"/>
      </g>
     </g>
     <g id="text_5">
      <!-- 240 -->
      <g transform="translate(14.101719 85.453183) scale(0.07 -0.07)">
       <defs>
        <path id="ArialMT-34" d="M 2069 0 
L 2069 1097 
L 81 1097 
L 81 1613 
L 2172 4581 
L 2631 4581 
L 2631 1613 
L 3250 1613 
L 3250 1097 
L 2631 1097 
L 2631 0 
L 2069 0 
z
M 2069 1613 
L 2069 3678 
L 634 1613 
L 2069 1613 
z
" transform="scale(0.015625)"/>
       </defs>
       <use xlink:href="#ArialMT-32"/>
       <use xlink:href="#ArialMT-34" transform="translate(55.615234 0)"/>
       <use xlink:href="#ArialMT-30" transform="translate(111.230469 0)"/>
      </g>
     </g>
    </g>
    <g id="ytick_2">
     <g id="line2d_5">
      <g>
       <use xlink:href="#me38874823e" x="30.047404" y="52.70383" style="stroke: #000000; stroke-width: 0.566929"/>
      </g>
     </g>
     <g id="text_6">
      <!-- 320 -->
      <g transform="translate(14.101719 55.209065) scale(0.07 -0.07)">
       <defs>
        <path id="ArialMT-33" d="M 269 1209 
L 831 1284 
Q 928 806 1161 595 
Q 1394 384 1728 384 
Q 2125 384 2398 659 
Q 2672 934 2672 1341 
Q 2672 1728 2419 1979 
Q 2166 2231 1775 2231 
Q 1616 2231 1378 2169 
L 1441 2663 
Q 1497 2656 1531 2656 
Q 1891 2656 2178 2843 
Q 2466 3031 2466 3422 
Q 2466 3731 2256 3934 
Q 2047 4138 1716 4138 
Q 1388 4138 1169 3931 
Q 950 3725 888 3313 
L 325 3413 
Q 428 3978 793 4289 
Q 1159 4600 1703 4600 
Q 2078 4600 2393 4439 
Q 2709 4278 2876 4000 
Q 3044 3722 3044 3409 
Q 3044 3113 2884 2869 
Q 2725 2625 2413 2481 
Q 2819 2388 3044 2092 
Q 3269 1797 3269 1353 
Q 3269 753 2831 336 
Q 2394 -81 1725 -81 
Q 1122 -81 723 278 
Q 325 638 269 1209 
z
" transform="scale(0.015625)"/>
       </defs>
       <use xlink:href="#ArialMT-33"/>
       <use xlink:href="#ArialMT-32" transform="translate(55.615234 0)"/>
       <use xlink:href="#ArialMT-30" transform="translate(111.230469 0)"/>
      </g>
     </g>
    </g>
    <g id="ytick_3">
     <g id="line2d_6">
      <g>
       <use xlink:href="#me38874823e" x="30.047404" y="22.459712" style="stroke: #000000; stroke-width: 0.566929"/>
      </g>
     </g>
     <g id="text_7">
      <!-- 400 -->
      <g transform="translate(14.101719 24.964946) scale(0.07 -0.07)">
       <use xlink:href="#ArialMT-34"/>
       <use xlink:href="#ArialMT-30" transform="translate(55.615234 0)"/>
       <use xlink:href="#ArialMT-30" transform="translate(111.230469 0)"/>
      </g>
     </g>
    </g>
    <g id="text_8">
     <!-- Response Time [ms] -->
     <g transform="translate(12.210469 90.607461) rotate(-90) scale(0.07 -0.07)">
      <defs>
       <path id="ArialMT-52" d="M 503 0 
L 503 4581 
L 2534 4581 
Q 3147 4581 3465 4457 
Q 3784 4334 3975 4021 
Q 4166 3709 4166 3331 
Q 4166 2844 3850 2509 
Q 3534 2175 2875 2084 
Q 3116 1969 3241 1856 
Q 3506 1613 3744 1247 
L 4541 0 
L 3778 0 
L 3172 953 
Q 2906 1366 2734 1584 
Q 2563 1803 2427 1890 
Q 2291 1978 2150 2013 
Q 2047 2034 1813 2034 
L 1109 2034 
L 1109 0 
L 503 0 
z
M 1109 2559 
L 2413 2559 
Q 2828 2559 3062 2645 
Q 3297 2731 3419 2920 
Q 3541 3109 3541 3331 
Q 3541 3656 3305 3865 
Q 3069 4075 2559 4075 
L 1109 4075 
L 1109 2559 
z
" transform="scale(0.015625)"/>
       <path id="ArialMT-70" d="M 422 -1272 
L 422 3319 
L 934 3319 
L 934 2888 
Q 1116 3141 1344 3267 
Q 1572 3394 1897 3394 
Q 2322 3394 2647 3175 
Q 2972 2956 3137 2557 
Q 3303 2159 3303 1684 
Q 3303 1175 3120 767 
Q 2938 359 2589 142 
Q 2241 -75 1856 -75 
Q 1575 -75 1351 44 
Q 1128 163 984 344 
L 984 -1272 
L 422 -1272 
z
M 931 1641 
Q 931 1000 1190 694 
Q 1450 388 1819 388 
Q 2194 388 2461 705 
Q 2728 1022 2728 1688 
Q 2728 2322 2467 2637 
Q 2206 2953 1844 2953 
Q 1484 2953 1207 2617 
Q 931 2281 931 1641 
z
" transform="scale(0.015625)"/>
       <path id="ArialMT-6f" d="M 213 1659 
Q 213 2581 725 3025 
Q 1153 3394 1769 3394 
Q 2453 3394 2887 2945 
Q 3322 2497 3322 1706 
Q 3322 1066 3130 698 
Q 2938 331 2570 128 
Q 2203 -75 1769 -75 
Q 1072 -75 642 372 
Q 213 819 213 1659 
z
M 791 1659 
Q 791 1022 1069 705 
Q 1347 388 1769 388 
Q 2188 388 2466 706 
Q 2744 1025 2744 1678 
Q 2744 2294 2464 2611 
Q 2184 2928 1769 2928 
Q 1347 2928 1069 2612 
Q 791 2297 791 1659 
z
" transform="scale(0.015625)"/>
       <path id="ArialMT-6e" d="M 422 0 
L 422 3319 
L 928 3319 
L 928 2847 
Q 1294 3394 1984 3394 
Q 2284 3394 2536 3286 
Q 2788 3178 2913 3003 
Q 3038 2828 3088 2588 
Q 3119 2431 3119 2041 
L 3119 0 
L 2556 0 
L 2556 2019 
Q 2556 2363 2490 2533 
Q 2425 2703 2258 2804 
Q 2091 2906 1866 2906 
Q 1506 2906 1245 2678 
Q 984 2450 984 1813 
L 984 0 
L 422 0 
z
" transform="scale(0.015625)"/>
       <path id="ArialMT-54" d="M 1659 0 
L 1659 4041 
L 150 4041 
L 150 4581 
L 3781 4581 
L 3781 4041 
L 2266 4041 
L 2266 0 
L 1659 0 
z
" transform="scale(0.015625)"/>
       <path id="ArialMT-69" d="M 425 3934 
L 425 4581 
L 988 4581 
L 988 3934 
L 425 3934 
z
M 425 0 
L 425 3319 
L 988 3319 
L 988 0 
L 425 0 
z
" transform="scale(0.015625)"/>
       <path id="ArialMT-6d" d="M 422 0 
L 422 3319 
L 925 3319 
L 925 2853 
Q 1081 3097 1340 3245 
Q 1600 3394 1931 3394 
Q 2300 3394 2536 3241 
Q 2772 3088 2869 2813 
Q 3263 3394 3894 3394 
Q 4388 3394 4653 3120 
Q 4919 2847 4919 2278 
L 4919 0 
L 4359 0 
L 4359 2091 
Q 4359 2428 4304 2576 
Q 4250 2725 4106 2815 
Q 3963 2906 3769 2906 
Q 3419 2906 3187 2673 
Q 2956 2441 2956 1928 
L 2956 0 
L 2394 0 
L 2394 2156 
Q 2394 2531 2256 2718 
Q 2119 2906 1806 2906 
Q 1569 2906 1367 2781 
Q 1166 2656 1075 2415 
Q 984 2175 984 1722 
L 984 0 
L 422 0 
z
" transform="scale(0.015625)"/>
      </defs>
      <use xlink:href="#ArialMT-52"/>
      <use xlink:href="#ArialMT-65" transform="translate(72.216797 0)"/>
      <use xlink:href="#ArialMT-73" transform="translate(127.832031 0)"/>
      <use xlink:href="#ArialMT-70" transform="translate(177.832031 0)"/>
      <use xlink:href="#ArialMT-6f" transform="translate(233.447266 0)"/>
      <use xlink:href="#ArialMT-6e" transform="translate(289.0625 0)"/>
      <use xlink:href="#ArialMT-73" transform="translate(344.677734 0)"/>
      <use xlink:href="#ArialMT-65" transform="translate(394.677734 0)"/>
      <use xlink:href="#ArialMT-20" transform="translate(450.292969 0)"/>
      <use xlink:href="#ArialMT-54" transform="translate(476.326172 0)"/>
      <use xlink:href="#ArialMT-69" transform="translate(533.660156 0)"/>
      <use xlink:href="#ArialMT-6d" transform="translate(555.876953 0)"/>
      <use xlink:href="#ArialMT-65" transform="translate(639.177734 0)"/>
      <use xlink:href="#ArialMT-20" transform="translate(694.792969 0)"/>
      <use xlink:href="#ArialMT-5b" transform="translate(722.576172 0)"/>
      <use xlink:href="#ArialMT-6d" transform="translate(750.359375 0)"/>
      <use xlink:href="#ArialMT-73" transform="translate(833.660156 0)"/>
      <use xlink:href="#ArialMT-5d" transform="translate(883.660156 0)"/>
     </g>
    </g>
   </g>
   <g id="text_9">
    <!-- ax.scatter() -->
    <g transform="translate(66.737817 13.02375) scale(0.08 -0.08)">
     <defs>
      <path id="ArialMT-78" d="M 47 0 
L 1259 1725 
L 138 3319 
L 841 3319 
L 1350 2541 
Q 1494 2319 1581 2169 
Q 1719 2375 1834 2534 
L 2394 3319 
L 3066 3319 
L 1919 1756 
L 3153 0 
L 2463 0 
L 1781 1031 
L 1600 1309 
L 728 0 
L 47 0 
z
" transform="scale(0.015625)"/>
      <path id="ArialMT-2e" d="M 581 0 
L 581 641 
L 1222 641 
L 1222 0 
L 581 0 
z
" transform="scale(0.015625)"/>
      <path id="ArialMT-63" d="M 2588 1216 
L 3141 1144 
Q 3050 572 2676 248 
Q 2303 -75 1759 -75 
Q 1078 -75 664 370 
Q 250 816 250 1647 
Q 250 2184 428 2587 
Q 606 2991 970 3192 
Q 1334 3394 1763 3394 
Q 2303 3394 2647 3120 
Q 2991 2847 3088 2344 
L 2541 2259 
Q 2463 2594 2264 2762 
Q 2066 2931 1784 2931 
Q 1359 2931 1093 2626 
Q 828 2322 828 1663 
Q 828 994 1084 691 
Q 1341 388 1753 388 
Q 2084 388 2306 591 
Q 2528 794 2588 1216 
z
" transform="scale(0.015625)"/>
      <path id="ArialMT-74" d="M 1650 503 
L 1731 6 
Q 1494 -44 1306 -44 
Q 1000 -44 831 53 
Q 663 150 594 308 
Q 525 466 525 972 
L 525 2881 
L 113 2881 
L 113 3319 
L 525 3319 
L 525 4141 
L 1084 4478 
L 1084 3319 
L 1650 3319 
L 1650 2881 
L 1084 2881 
L 1084 941 
Q 1084 700 1114 631 
Q 1144 563 1211 522 
Q 1278 481 1403 481 
Q 1497 481 1650 503 
z
" transform="scale(0.015625)"/>
      <path id="ArialMT-28" d="M 1497 -1347 
Q 1031 -759 709 28 
Q 388 816 388 1659 
Q 388 2403 628 3084 
Q 909 3875 1497 4659 
L 1900 4659 
Q 1522 4009 1400 3731 
Q 1209 3300 1100 2831 
Q 966 2247 966 1656 
Q 966 153 1900 -1347 
L 1497 -1347 
z
" transform="scale(0.015625)"/>
      <path id="ArialMT-29" d="M 791 -1347 
L 388 -1347 
Q 1322 153 1322 1656 
Q 1322 2244 1188 2822 
Q 1081 3291 891 3722 
Q 769 4003 388 4659 
L 791 4659 
Q 1378 3875 1659 3084 
Q 1900 2403 1900 1659 
Q 1900 816 1576 28 
Q 1253 -759 791 -1347 
z
" transform="scale(0.015625)"/>
     </defs>
     <use xlink:href="#ArialMT-61"/>
     <use xlink:href="#ArialMT-78" transform="translate(55.615234 0)"/>
     <use xlink:href="#ArialMT-2e" transform="translate(105.615234 0)"/>
     <use xlink:href="#ArialMT-73" transform="translate(133.398438 0)"/>
     <use xlink:href="#ArialMT-63" transform="translate(183.398438 0)"/>
     <use xlink:href="#ArialMT-61" transform="translate(233.398438 0)"/>
     <use xlink:href="#ArialMT-74" transform="translate(289.013672 0)"/>
     <use xlink:href="#ArialMT-74" transform="translate(316.796875 0)"/>
     <use xlink:href="#ArialMT-65" transform="translate(344.580078 0)"/>
     <use xlink:href="#ArialMT-72" transform="translate(400.195312 0)"/>
     <use xlink:href="#ArialMT-28" transform="translate(433.496094 0)"/>
     <use xlink:href="#ArialMT-29" transform="translate(466.796875 0)"/>
    </g>
   </g>
   <g id="patch_3">
    <path d="M 30.047404 98.393829 
L 30.047404 19.02375 
" style="fill: none; stroke: #000000; stroke-width: 0.566929; stroke-linejoin: miter; stroke-linecap: square"/>
   </g>
   <g id="patch_4">
    <path d="M 30.047404 98.393829 
L 143.433231 98.393829 
" style="fill: none; stroke: #000000; stroke-width: 0.566929; stroke-linejoin: miter; stroke-linecap: square"/>
   </g>
  </g>
 </g>
 <defs>
  <clipPath id="pe269f83275">
   <rect x="30.047404" y="19.02375" width="113.385827" height="79.370079"/>
  </clipPath>
 </defs>
</svg>
